<svg width="420" height="240" viewBox="0 0 420 240" fill="none" xmlns="http://www.w3.org/2000/svg">
  <g opacity="0.55" stroke="#F5D38C" stroke-width="2">
    <path d="M36 24L52 14H72L88 24V44L72 54H52L36 44V24Z"/>
    <path d="M108 24L124 14H144L160 24V44L144 54H124L108 44V24Z"/>
    <path d="M180 24L196 14H216L232 24V44L216 54H196L180 44V24Z"/>
    <path d="M72 64L88 54H108L124 64V84L108 94H88L72 84V64Z"/>
    <path d="M144 64L160 54H180L196 64V84L180 94H160L144 84V64Z"/>
    <path d="M216 64L232 54H252L268 64V84L252 94H232L216 84V64Z"/>
    <path d="M252 24L268 14H288L304 24V44L288 54H268L252 44V24Z"/>
  </g>
</svg>
