<svg width="460" height="110" viewBox="0 0 460 110" fill="none" xmlns="http://www.w3.org/2000/svg">
  <path d="M0 76L28 28L56 76L84 28L112 76L140 28L168 76L196 28L224 76L252 28L280 76L308 28L336 76L364 28L392 76L420 28L448 76" stroke="#F4D07D" stroke-width="6" stroke-linejoin="round" stroke-linecap="round"/>
  <path d="M12 94L40 46L68 94L96 46L124 94L152 46L180 94L208 46L236 94L264 46L292 94L320 46L348 94L376 46L404 94L432 46" stroke="#8EE6D3" stroke-width="4" stroke-linejoin="round" stroke-linecap="round" opacity="0.7"/>
</svg>
